<mxfile host="app.diagrams.net" modified="2023-11-07T02:54:04.149Z" agent="Mozilla/5.0 (Macintosh; Intel Mac OS X 10_15_7) AppleWebKit/537.36 (KHTML, like Gecko) Chrome/119.0.0.0 Safari/537.36" etag="OuF1W--OLDZkhg8H2Fr6" version="22.0.8" type="github">
  <diagram name="Page-1" id="N-ph5Ac-4gicPpuwLGdz">
    <mxGraphModel dx="1211" dy="1013" grid="0" gridSize="10" guides="1" tooltips="1" connect="1" arrows="1" fold="1" page="0" pageScale="1" pageWidth="850" pageHeight="1100" math="1" shadow="0">
      <root>
        <mxCell id="0" />
        <mxCell id="1" parent="0" />
        <mxCell id="hT-kTI_gYKS62btYlZhu-52" style="edgeStyle=none;curved=1;rounded=0;hachureGap=4;orthogonalLoop=1;jettySize=auto;html=1;fontFamily=Architects Daughter;fontSource=https%3A%2F%2Ffonts.googleapis.com%2Fcss%3Ffamily%3DArchitects%2BDaughter;fontSize=16;startSize=8;endSize=8;" edge="1" parent="1" source="hT-kTI_gYKS62btYlZhu-38" target="hT-kTI_gYKS62btYlZhu-51">
          <mxGeometry relative="1" as="geometry" />
        </mxCell>
        <mxCell id="hT-kTI_gYKS62btYlZhu-38" value="\(\Lambda_{\theta}\)" style="whiteSpace=wrap;html=1;hachureGap=4;fontFamily=Architects Daughter;fontSource=https%3A%2F%2Ffonts.googleapis.com%2Fcss%3Ffamily%3DArchitects%2BDaughter;fontSize=20;flipV=1;" vertex="1" parent="1">
          <mxGeometry x="235.5" y="176" width="47" height="38" as="geometry" />
        </mxCell>
        <mxCell id="hT-kTI_gYKS62btYlZhu-65" style="edgeStyle=none;curved=1;rounded=0;orthogonalLoop=1;jettySize=auto;html=1;fontSize=12;startSize=8;endSize=8;" edge="1" parent="1" source="hT-kTI_gYKS62btYlZhu-39" target="hT-kTI_gYKS62btYlZhu-40">
          <mxGeometry relative="1" as="geometry" />
        </mxCell>
        <mxCell id="hT-kTI_gYKS62btYlZhu-39" value="\(\Gamma_{\theta}\)&lt;br&gt;" style="whiteSpace=wrap;html=1;hachureGap=4;fontFamily=Architects Daughter;fontSource=https%3A%2F%2Ffonts.googleapis.com%2Fcss%3Ffamily%3DArchitects%2BDaughter;fontSize=20;" vertex="1" parent="1">
          <mxGeometry x="85.5" y="176" width="47" height="38" as="geometry" />
        </mxCell>
        <mxCell id="hT-kTI_gYKS62btYlZhu-66" style="edgeStyle=none;curved=1;rounded=0;orthogonalLoop=1;jettySize=auto;html=1;fontSize=12;startSize=8;endSize=8;" edge="1" parent="1" source="hT-kTI_gYKS62btYlZhu-40" target="hT-kTI_gYKS62btYlZhu-43">
          <mxGeometry relative="1" as="geometry" />
        </mxCell>
        <mxCell id="hT-kTI_gYKS62btYlZhu-40" value="\(\Gamma_{\theta}\)&lt;br&gt;" style="whiteSpace=wrap;html=1;hachureGap=4;fontFamily=Architects Daughter;fontSource=https%3A%2F%2Ffonts.googleapis.com%2Fcss%3Ffamily%3DArchitects%2BDaughter;fontSize=20;" vertex="1" parent="1">
          <mxGeometry x="85.5" y="298" width="47" height="38" as="geometry" />
        </mxCell>
        <mxCell id="hT-kTI_gYKS62btYlZhu-64" style="edgeStyle=none;curved=1;rounded=0;orthogonalLoop=1;jettySize=auto;html=1;fontSize=12;startSize=8;endSize=8;" edge="1" parent="1" source="hT-kTI_gYKS62btYlZhu-42" target="hT-kTI_gYKS62btYlZhu-39">
          <mxGeometry relative="1" as="geometry" />
        </mxCell>
        <mxCell id="hT-kTI_gYKS62btYlZhu-42" value="&lt;meta charset=&quot;utf-8&quot;&gt;&lt;span style=&quot;color: rgb(0, 0, 0); font-family: &amp;quot;Architects Daughter&amp;quot;; font-size: 20px; font-style: normal; font-variant-ligatures: normal; font-variant-caps: normal; font-weight: 400; letter-spacing: normal; orphans: 2; text-align: center; text-indent: 0px; text-transform: none; widows: 2; word-spacing: 0px; -webkit-text-stroke-width: 0px; background-color: rgb(255, 255, 255); text-decoration-thickness: initial; text-decoration-style: initial; text-decoration-color: initial; float: none; display: inline !important;&quot;&gt;\(v\)&lt;/span&gt;" style="whiteSpace=wrap;html=1;aspect=fixed;hachureGap=4;fontFamily=Architects Daughter;fontSource=https%3A%2F%2Ffonts.googleapis.com%2Fcss%3Ffamily%3DArchitects%2BDaughter;fontSize=20;strokeColor=none;" vertex="1" parent="1">
          <mxGeometry x="93" y="57" width="32" height="32" as="geometry" />
        </mxCell>
        <mxCell id="hT-kTI_gYKS62btYlZhu-43" value="\(v&#39;&#39;\)" style="whiteSpace=wrap;html=1;aspect=fixed;hachureGap=4;fontFamily=Architects Daughter;fontSource=https%3A%2F%2Ffonts.googleapis.com%2Fcss%3Ffamily%3DArchitects%2BDaughter;fontSize=20;strokeColor=none;" vertex="1" parent="1">
          <mxGeometry x="93" y="423" width="32" height="32" as="geometry" />
        </mxCell>
        <mxCell id="hT-kTI_gYKS62btYlZhu-68" style="edgeStyle=none;rounded=0;orthogonalLoop=1;jettySize=auto;html=1;fontSize=12;startSize=8;endSize=8;dashed=1;" edge="1" parent="1" source="hT-kTI_gYKS62btYlZhu-44" target="hT-kTI_gYKS62btYlZhu-40">
          <mxGeometry relative="1" as="geometry">
            <Array as="points">
              <mxPoint x="165" y="436" />
            </Array>
          </mxGeometry>
        </mxCell>
        <mxCell id="hT-kTI_gYKS62btYlZhu-44" value="\(x&#39;&#39;\)" style="whiteSpace=wrap;html=1;aspect=fixed;hachureGap=4;fontFamily=Architects Daughter;fontSource=https%3A%2F%2Ffonts.googleapis.com%2Fcss%3Ffamily%3DArchitects%2BDaughter;fontSize=20;flipV=1;strokeColor=none;" vertex="1" parent="1">
          <mxGeometry x="243" y="423" width="32" height="32" as="geometry" />
        </mxCell>
        <mxCell id="hT-kTI_gYKS62btYlZhu-50" style="edgeStyle=none;curved=1;rounded=0;hachureGap=4;orthogonalLoop=1;jettySize=auto;html=1;fontFamily=Architects Daughter;fontSource=https%3A%2F%2Ffonts.googleapis.com%2Fcss%3Ffamily%3DArchitects%2BDaughter;fontSize=16;startSize=8;endSize=8;" edge="1" parent="1" source="hT-kTI_gYKS62btYlZhu-45" target="hT-kTI_gYKS62btYlZhu-38">
          <mxGeometry relative="1" as="geometry" />
        </mxCell>
        <mxCell id="hT-kTI_gYKS62btYlZhu-45" value="\(x_{A}\)" style="whiteSpace=wrap;html=1;aspect=fixed;hachureGap=4;fontFamily=Architects Daughter;fontSource=https%3A%2F%2Ffonts.googleapis.com%2Fcss%3Ffamily%3DArchitects%2BDaughter;fontSize=20;strokeColor=none;" vertex="1" parent="1">
          <mxGeometry x="151" y="120" width="32" height="32" as="geometry" />
        </mxCell>
        <mxCell id="hT-kTI_gYKS62btYlZhu-53" style="edgeStyle=none;curved=1;rounded=0;hachureGap=4;orthogonalLoop=1;jettySize=auto;html=1;fontFamily=Architects Daughter;fontSource=https%3A%2F%2Ffonts.googleapis.com%2Fcss%3Ffamily%3DArchitects%2BDaughter;fontSize=16;startSize=8;endSize=8;" edge="1" parent="1" source="hT-kTI_gYKS62btYlZhu-46" target="hT-kTI_gYKS62btYlZhu-51">
          <mxGeometry relative="1" as="geometry" />
        </mxCell>
        <mxCell id="hT-kTI_gYKS62btYlZhu-46" value="\(x_{B}\)" style="whiteSpace=wrap;html=1;aspect=fixed;hachureGap=4;fontFamily=Architects Daughter;fontSource=https%3A%2F%2Ffonts.googleapis.com%2Fcss%3Ffamily%3DArchitects%2BDaughter;fontSize=20;flipV=0;strokeColor=none;" vertex="1" parent="1">
          <mxGeometry x="330.5" y="120" width="32" height="32" as="geometry" />
        </mxCell>
        <mxCell id="hT-kTI_gYKS62btYlZhu-48" style="edgeStyle=none;curved=1;rounded=0;hachureGap=4;orthogonalLoop=1;jettySize=auto;html=1;fontFamily=Architects Daughter;fontSource=https%3A%2F%2Ffonts.googleapis.com%2Fcss%3Ffamily%3DArchitects%2BDaughter;fontSize=16;startSize=8;endSize=8;" edge="1" parent="1" source="hT-kTI_gYKS62btYlZhu-47" target="hT-kTI_gYKS62btYlZhu-45">
          <mxGeometry relative="1" as="geometry" />
        </mxCell>
        <mxCell id="hT-kTI_gYKS62btYlZhu-49" style="edgeStyle=none;curved=1;rounded=0;hachureGap=4;orthogonalLoop=1;jettySize=auto;html=1;fontFamily=Architects Daughter;fontSource=https%3A%2F%2Ffonts.googleapis.com%2Fcss%3Ffamily%3DArchitects%2BDaughter;fontSize=16;startSize=8;endSize=8;" edge="1" parent="1" source="hT-kTI_gYKS62btYlZhu-47" target="hT-kTI_gYKS62btYlZhu-46">
          <mxGeometry relative="1" as="geometry" />
        </mxCell>
        <mxCell id="hT-kTI_gYKS62btYlZhu-67" style="edgeStyle=none;rounded=0;orthogonalLoop=1;jettySize=auto;html=1;fontSize=12;startSize=8;endSize=8;dashed=1;" edge="1" parent="1" source="hT-kTI_gYKS62btYlZhu-47" target="hT-kTI_gYKS62btYlZhu-39">
          <mxGeometry relative="1" as="geometry">
            <Array as="points">
              <mxPoint x="165" y="75" />
            </Array>
          </mxGeometry>
        </mxCell>
        <mxCell id="hT-kTI_gYKS62btYlZhu-47" value="\(x\)" style="whiteSpace=wrap;html=1;aspect=fixed;hachureGap=4;fontFamily=Architects Daughter;fontSource=https%3A%2F%2Ffonts.googleapis.com%2Fcss%3Ffamily%3DArchitects%2BDaughter;fontSize=20;strokeColor=none;" vertex="1" parent="1">
          <mxGeometry x="243" y="57" width="32" height="32" as="geometry" />
        </mxCell>
        <mxCell id="hT-kTI_gYKS62btYlZhu-61" style="edgeStyle=none;curved=1;rounded=0;hachureGap=4;orthogonalLoop=1;jettySize=auto;html=1;fontFamily=Architects Daughter;fontSource=https%3A%2F%2Ffonts.googleapis.com%2Fcss%3Ffamily%3DArchitects%2BDaughter;fontSize=16;startSize=8;endSize=8;" edge="1" parent="1" source="hT-kTI_gYKS62btYlZhu-51" target="hT-kTI_gYKS62btYlZhu-57">
          <mxGeometry relative="1" as="geometry" />
        </mxCell>
        <mxCell id="hT-kTI_gYKS62btYlZhu-63" style="edgeStyle=none;curved=1;rounded=0;orthogonalLoop=1;jettySize=auto;html=1;fontSize=12;startSize=8;endSize=8;" edge="1" parent="1" source="hT-kTI_gYKS62btYlZhu-51" target="hT-kTI_gYKS62btYlZhu-54">
          <mxGeometry relative="1" as="geometry" />
        </mxCell>
        <mxCell id="hT-kTI_gYKS62btYlZhu-51" value="\(+\)" style="whiteSpace=wrap;html=1;aspect=fixed;hachureGap=4;fontFamily=Architects Daughter;fontSource=https%3A%2F%2Ffonts.googleapis.com%2Fcss%3Ffamily%3DArchitects%2BDaughter;fontSize=20;flipV=0;rounded=0;strokeColor=none;fillColor=none;" vertex="1" parent="1">
          <mxGeometry x="334" y="244" width="25" height="25" as="geometry" />
        </mxCell>
        <mxCell id="hT-kTI_gYKS62btYlZhu-59" style="edgeStyle=none;curved=1;rounded=0;hachureGap=4;orthogonalLoop=1;jettySize=auto;html=1;fontFamily=Architects Daughter;fontSource=https%3A%2F%2Ffonts.googleapis.com%2Fcss%3Ffamily%3DArchitects%2BDaughter;fontSize=16;startSize=8;endSize=8;" edge="1" parent="1" source="hT-kTI_gYKS62btYlZhu-54" target="hT-kTI_gYKS62btYlZhu-55">
          <mxGeometry relative="1" as="geometry" />
        </mxCell>
        <mxCell id="hT-kTI_gYKS62btYlZhu-54" value="\(\Lambda_{\theta}\)" style="whiteSpace=wrap;html=1;hachureGap=4;fontFamily=Architects Daughter;fontSource=https%3A%2F%2Ffonts.googleapis.com%2Fcss%3Ffamily%3DArchitects%2BDaughter;fontSize=20;flipV=1;" vertex="1" parent="1">
          <mxGeometry x="235.5" y="298" width="47" height="38" as="geometry" />
        </mxCell>
        <mxCell id="hT-kTI_gYKS62btYlZhu-60" style="edgeStyle=none;curved=1;rounded=0;hachureGap=4;orthogonalLoop=1;jettySize=auto;html=1;fontFamily=Architects Daughter;fontSource=https%3A%2F%2Ffonts.googleapis.com%2Fcss%3Ffamily%3DArchitects%2BDaughter;fontSize=16;startSize=8;endSize=8;" edge="1" parent="1" source="hT-kTI_gYKS62btYlZhu-55" target="hT-kTI_gYKS62btYlZhu-44">
          <mxGeometry relative="1" as="geometry" />
        </mxCell>
        <mxCell id="hT-kTI_gYKS62btYlZhu-55" value="\(+\)" style="whiteSpace=wrap;html=1;aspect=fixed;hachureGap=4;fontFamily=Architects Daughter;fontSource=https%3A%2F%2Ffonts.googleapis.com%2Fcss%3Ffamily%3DArchitects%2BDaughter;fontSize=20;rounded=0;strokeColor=none;fillColor=none;" vertex="1" parent="1">
          <mxGeometry x="154.5" y="364.5" width="25" height="25" as="geometry" />
        </mxCell>
        <mxCell id="hT-kTI_gYKS62btYlZhu-62" style="edgeStyle=none;curved=1;rounded=0;hachureGap=4;orthogonalLoop=1;jettySize=auto;html=1;fontFamily=Architects Daughter;fontSource=https%3A%2F%2Ffonts.googleapis.com%2Fcss%3Ffamily%3DArchitects%2BDaughter;fontSize=16;startSize=8;endSize=8;" edge="1" parent="1" source="hT-kTI_gYKS62btYlZhu-57" target="hT-kTI_gYKS62btYlZhu-44">
          <mxGeometry relative="1" as="geometry" />
        </mxCell>
        <mxCell id="hT-kTI_gYKS62btYlZhu-57" value="\(=\)" style="whiteSpace=wrap;html=1;aspect=fixed;hachureGap=4;fontFamily=Architects Daughter;fontSource=https%3A%2F%2Ffonts.googleapis.com%2Fcss%3Ffamily%3DArchitects%2BDaughter;fontSize=20;flipV=0;rounded=0;strokeColor=none;fillColor=none;" vertex="1" parent="1">
          <mxGeometry x="334" y="362" width="25" height="25" as="geometry" />
        </mxCell>
      </root>
    </mxGraphModel>
  </diagram>
</mxfile>
